<?xml version="1.0" encoding="UTF-8" standalone="no"?>
<svg
   id="bootstrap"
   viewBox="0 0 118 94"
   version="1.1"
   sodipodi:docname="1visualizer-logo - Copy.svg"
   inkscape:version="1.1.2 (b8e25be833, 2022-02-05)"
   xmlns:inkscape="http://www.inkscape.org/namespaces/inkscape"
   xmlns:sodipodi="http://sodipodi.sourceforge.net/DTD/sodipodi-0.dtd"
   xmlns="http://www.w3.org/2000/svg"
   xmlns:svg="http://www.w3.org/2000/svg">
  <defs
     id="defs25" />
  <sodipodi:namedview
     id="namedview23"
     pagecolor="#ffffff"
     bordercolor="#666666"
     borderopacity="1.0"
     inkscape:pageshadow="2"
     inkscape:pageopacity="0.0"
     inkscape:pagecheckerboard="0"
     showgrid="false"
     inkscape:zoom="6.0781094"
     inkscape:cx="18.179995"
     inkscape:cy="55.609397"
     inkscape:window-width="1920"
     inkscape:window-height="1017"
     inkscape:window-x="-1928"
     inkscape:window-y="-2"
     inkscape:window-maximized="1"
     inkscape:current-layer="bootstrap" />
  <title
     id="title18">1Visualizer</title>
  <path
     id="path20"
     d="M 24.507812 0 C 17.775815 0.0011545535 12.7946 5.8928293 13.017578 12.283203 C 13.231578 18.423203 12.953172 26.376328 10.951172 32.861328 C 8.9431719 39.365328 5.547 43.484672 0 44.013672 L 0 49.986328 C 5.547 50.515328 8.9431719 54.634672 10.951172 61.138672 C 12.953172 67.623672 13.231578 75.576797 13.017578 81.716797 C 12.794578 88.106797 17.775766 94 24.509766 94 L 93.5 94 C 100.233 94 105.21323 88.107797 104.99023 81.716797 C 104.77623 75.576797 105.05464 67.623672 107.05664 61.138672 C 109.06564 54.634672 112.453 50.515328 118 49.986328 L 118 44.013672 C 112.453 43.484672 109.06564 39.365328 107.05664 32.861328 C 105.05464 26.377328 104.77623 18.423203 104.99023 12.283203 C 105.21323 5.8932031 100.233 2.3684758e-15 93.5 0 L 24.509766 0 L 24.507812 0 z M 42.199219 26.001953 L 45.005859 26.001953 L 45.005859 67.998047 L 38.359375 67.998047 L 38.359375 34.136719 C 37.15625 34.996094 35.858942 35.732639 34.464844 36.34375 C 33.089843 36.935764 31.514324 37.459635 29.738281 37.917969 L 29.738281 32.246094 C 30.845921 31.883246 31.914061 31.502603 32.945312 31.101562 C 33.976562 30.70052 34.989366 30.250435 35.982422 29.753906 C 36.994575 29.257378 38.007378 28.704861 39.019531 28.09375 C 40.050782 27.482639 41.110677 26.78494 42.199219 26.001953 z M 51.394531 26.917969 L 58.841797 26.917969 L 68.982422 58.085938 C 69.307075 59.078995 69.554687 60.233072 69.726562 61.550781 L 69.841797 61.550781 C 69.975478 60.462239 70.251736 59.287761 70.671875 58.027344 L 81.042969 26.917969 L 88.261719 26.917969 L 73.507812 67.998047 L 65.888672 67.998047 L 51.394531 26.917969 z "
     style="fill:#0d6efd;fill-opacity:1" />
</svg>
