<?xml version="1.0" encoding="utf-8"?>
<!-- Generator: Adobe Illustrator 26.2.1, SVG Export Plug-In . SVG Version: 6.00 Build 0)  -->
<svg version="1.1" id="Layer_1" xmlns="http://www.w3.org/2000/svg" xmlns:xlink="http://www.w3.org/1999/xlink" x="0px" y="0px"
	 viewBox="0 0 16 16" style="enable-background:new 0 0 16 16;" xml:space="preserve">
<style type="text/css">
	.st0{fill:#F28E33;}
</style>
<path class="st0" d="M6.4,11.7V6.4H5.8C5.4,6.6,4.9,6.9,4.5,7.2v0.7c0.4-0.3,1-0.6,1.3-0.8h0v4.6H6.4z M7.6,10.4
	c0,0.6,0.6,1.4,1.7,1.4c1.3,0,2-1.1,2-2.9c0-1.9-0.8-2.7-2-2.7c-0.9,0-1.8,0.7-1.8,1.8c0,1.2,0.8,1.8,1.7,1.8c0.7,0,1.2-0.4,1.4-0.8
	h0c0,1.3-0.5,2.2-1.3,2.2c-0.7,0-1-0.4-1.1-0.8H7.6z M10.6,8.1c0,0.7-0.6,1.2-1.2,1.2C8.8,9.2,8.3,8.9,8.3,8c0-0.8,0.6-1.2,1.2-1.2
	C10.1,6.8,10.6,7.2,10.6,8.1z"/>
<path class="st0" d="M3.5,0C3.8,0,4,0.2,4,0.5V1h8V0.5C12,0.2,12.2,0,12.5,0S13,0.2,13,0.5V1h1c1.1,0,2,0.9,2,2v11c0,1.1-0.9,2-2,2
	H2c-1.1,0-2-0.9-2-2V3c0-1.1,0.9-2,2-2h1V0.5C3,0.2,3.2,0,3.5,0z M1,4v10c0,0.6,0.4,1,1,1h12c0.6,0,1-0.4,1-1V4H1z"/>
</svg>
