<?xml version="1.0" encoding="utf-8"?>
<!-- Generator: Adobe Illustrator 26.2.1, SVG Export Plug-In . SVG Version: 6.00 Build 0)  -->
<svg version="1.1" id="Layer_1" xmlns="http://www.w3.org/2000/svg" xmlns:xlink="http://www.w3.org/1999/xlink" x="0px" y="0px"
	 viewBox="0 0 462.4 277.2" style="enable-background:new 0 0 462.4 277.2;" xml:space="preserve">
<style type="text/css">
	.st0{fill:#F28E33;}
</style>
<path class="st0" d="M96.5,5.4v266.5H53V129c0-20.6-0.3-33-1-37.2c-0.7-4.2-2.4-7.3-5.3-9.4c-2.9-2.1-9.4-3.2-19.4-3.2H23V48.1
	c21-6.9,37-21.2,47.9-42.7L96.5,5.4L96.5,5.4z M262.6,226.5V272H144.6v-38c34.9-70.9,55.8-114.7,62.4-131.6
	c6.6-16.8,9.8-30,9.8-39.4c0-7.3-1-12.6-3-16.2c-2-3.5-5.1-5.3-9.1-5.3c-4,0-7.1,2-9.1,5.9s-3,11.8-3,23.5v25.4h-48.1v-9.7
	c0-14.9,0.6-26.7,1.9-35.3c1.2-8.6,4.3-17.1,9.2-25.4c4.9-8.3,11.2-14.7,19-19c7.7-4.3,17.1-6.4,28-6.4c21.3,0,37.5,6.5,48.4,19.7
	c10.9,13.1,16.5,29.7,16.5,49.8c0,15.2-3.1,31.4-9.3,48.4c-6.2,17-24.3,53.1-54.4,108.3h58.9V226.5z M398.9,120.9
	c7.8,3.4,13.5,9,17.4,16.7c3.8,7.7,5.7,25.9,5.7,54.4c0,21.2-1.8,37.6-5.6,49.3s-10.2,20.6-19.2,26.7c-9.2,6.1-20.9,9.1-35.1,9.1
	c-16.2,0-28.9-3.5-38.3-10.6s-15.3-15.8-18.2-26c-2.9-10.3-4.4-28.1-4.4-53.4V166h51.2v43.3c0,11.5,0.5,18.9,1.6,21.9
	c1.1,3.1,3.4,4.7,7,4.7c3.9,0,6.6-2,7.9-5.9c1.3-3.9,1.8-14.3,1.8-31v-18.3c0-10.2-0.8-17.6-2.7-22.4s-4.4-7.8-7.9-9.3
	s-10.2-2.3-20.1-2.5v-38.6c12.2,0,19.7-0.6,22.6-1.8c2.8-1.2,4.9-3.8,6.2-7.9c1.3-4,1.8-10.5,1.8-19.1v-15c0-9.3-0.7-15.5-2.2-18.5
	s-3.8-4.5-6.9-4.5c-3.5,0-5.9,1.6-7.2,4.7c-1.3,3.2-1.9,9.8-1.9,20v21.9h-51.2V65.1c0-25.5,4.5-42.7,13.5-51.6
	c9.1-9,23.3-13.5,42.8-13.5c24.4,0,40.9,6.2,49.6,18.6s13.1,29.6,13.1,51.6c0,14.9-1.6,25.7-4.7,32.3
	C412.2,109.4,406.8,115.4,398.9,120.9L398.9,120.9z"/>
</svg>
