<?xml version="1.0" encoding="utf-8"?>
<!-- Generator: Adobe Illustrator 26.2.1, SVG Export Plug-In . SVG Version: 6.00 Build 0)  -->
<svg version="1.1" id="Layer_1" xmlns="http://www.w3.org/2000/svg" xmlns:xlink="http://www.w3.org/1999/xlink" x="0px" y="0px"
	 viewBox="0 0 78 83" style="enable-background:new 0 0 78 83;" xml:space="preserve">
<style type="text/css">
	.st0{fill:#F28E33;}
</style>
<path class="st0" d="M31.5,62.3l-2.1,2.1L35,70h-8.5C19,70,13,64,13,56.5S19,43,26.5,43h5v-3h-5c-0.2,0-0.4,0-0.6,0l0,0h-8.6
	C9.7,40,3,33.7,3,26.5C3,19,9,13,16.5,13h5v-3h-5C7.4,10,0,17.4,0,26.5C0,35.4,7.8,42.8,17.1,43C9.6,48.2,7.8,58.5,13,66
	c3.1,4.4,8.1,7,13.5,7H35l-5.6,5.6l2.1,2.1l7.1-7.1l2.1-2.1l-2.1-2.1L31.5,62.3z"/>
<path class="st0" d="M58,0H25v23h33V0z M54,19H29V4h25V19z"/>
<path class="st0" d="M35,53h33V30H35V53z M39,34h25v15H39V34z"/>
<path class="st0" d="M45,60v23h33V60H45z M74,79H49V64h25V79z"/>
</svg>
