<?xml version="1.0" encoding="utf-8"?>
<!-- Generator: Adobe Illustrator 26.2.1, SVG Export Plug-In . SVG Version: 6.00 Build 0)  -->
<svg version="1.1" id="Layer_1" xmlns="http://www.w3.org/2000/svg" xmlns:xlink="http://www.w3.org/1999/xlink" x="0px" y="0px"
	 viewBox="0 0 865.3 437.8" style="enable-background:new 0 0 865.3 437.8;" xml:space="preserve">
<style type="text/css">
	.st0{fill:#F28E33;}
</style>
<path class="st0" d="M327.7,295.6c0,25-6.5,47.4-19.3,67.3c-12.9,19.9-31.7,35.4-56.4,46.7s-54.1,16.9-88,16.9
	c-40.7,0-74.2-7.6-100.7-23c-18.8-11.1-34-25.9-45.7-44.3C5.8,340.5,0,322.6,0,305.2c0-10.1,3.5-18.8,10.6-26s16-10.8,26.9-10.8
	c8.8,0,16.3,2.8,22.4,8.4c6,5.6,11.2,14,15.6,25.1c5.2,13.1,10.9,24.1,17,33c6.1,8.8,14.7,16.1,25.7,21.8
	c11.1,5.8,25.6,8.6,43.6,8.6c24.8,0,44.9-5.8,60.3-17.3c15.5-11.6,23.2-25.9,23.2-43.2c0-13.7-4.2-24.8-12.5-33.3
	c-8.3-8.6-19.1-15-32.3-19.6c-13.2-4.5-30.9-9.3-53.1-14.4c-29.6-6.8-54.3-14.9-74.4-24.3c-20-9.3-35.8-22-47.5-38
	c-11.8-16-17.6-35.9-17.6-59.7c0-22.7,6.2-42.9,18.6-60.5s30.3-31.2,53.7-40.6S131.1,0,162.8,0c25.3,0,47.2,3.2,65.7,9.4
	c18.4,6.3,33.8,14.7,46,25.1c12.2,10.4,21.1,21.3,26.7,32.8s8.4,22.7,8.4,33.5c0,9.9-3.5,18.9-10.6,26.8c-6.9,8-15.7,12-26.2,12
	c-9.5,0-16.8-2.4-21.8-7.1c-5.1-4.9-10.4-12.7-16.3-23.6c-7.5-15.6-16.4-27.6-26.9-36.4c-10.6-8.7-27.4-13.1-50.6-13.1
	c-21.6,0-38.9,4.7-52.2,14.2c-13.2,9.5-19.8,20.9-19.8,34.2c0,8.3,2.2,15.4,6.7,21.4s10.7,11.2,18.6,15.5s15.9,7.7,23.9,10.1
	s21.4,6,39.9,10.6c23.2,5.5,44.3,11.5,63.2,18c18.8,6.7,34.9,14.6,48.1,23.9c13.2,9.4,23.5,21.2,30.9,35.6
	C324,257.3,327.7,274.8,327.7,295.6z M385.9,121h8.4V74.9c0-12.4,0.3-22.1,1-29.1c0.6-7,2.5-13.1,5.4-18.1c3-5.2,7.3-9.5,12.9-12.8
	c5.6-3.3,11.9-5,18.9-5c9.7,0,18.6,3.6,26.4,11c5.2,4.9,8.6,10.8,10,17.8c1.4,7.1,2.1,17.1,2.1,30V121h28.1
	c10.9,0,19.1,2.6,24.9,7.7c5.8,5.2,8.6,11.8,8.6,19.8c0,10.4-4.1,17.5-12.2,21.7s-19.9,6.1-35,6.1h-14.4v141.2
	c0,12,0.4,21.2,1.3,27.7c0.9,6.5,3.1,11.7,6.7,15.7c3.6,4,9.6,6.1,17.9,6.1c4.5,0,10.6-0.8,18.2-2.4c7.7-1.6,13.8-2.4,18-2.4
	c6.3,0,11.8,2.5,16.8,7.5c5,4.9,7.5,11.1,7.5,18.4c0,12.4-6.7,21.9-20.2,28.4s-33,9.8-58.2,9.8c-24,0-42.2-4-54.6-12
	s-20.5-19.2-24.3-33.4s-5.8-33.3-5.8-57.2V176.4h-10.1c-11.1,0-19.5-2.6-25.3-7.9s-8.7-11.9-8.7-20c0-8,3-14.7,9.2-19.8
	C365.4,123.6,374.3,121,385.9,121z M661.8,315.6v64.1c0,15.6-3.6,27.2-10.9,35c-7.4,7.7-16.6,11.6-27.9,11.6
	c-11.1,0-20.1-3.9-27.3-11.8S585,395.1,585,379.8V166c0-34.5,12.5-51.8,37.4-51.8c12.7,0,22,4,27.6,12s4.9,16.2,5.5,31.9
	c9.2-15.7,22.4-23.9,32-31.9s22.7-12,38.7-12s31.7,4,46.8,12c15.2,8.1,22.8,18.8,22.8,32.1c0,9.3-3.3,17.2-9.7,23.2
	c-6.5,6.1-13.5,9.2-21,9.2c-2.8,0-9.6-1.7-20.4-5.2c-10.8-3.5-20.2-5.2-28.5-5.2c-11.3,0-20.5,2.9-27.6,8.9
	c-7.1,5.9-12.6,14.7-16.5,26.3c-4,11.6-6.7,25.4-8.3,41.4C662.5,273,661.8,292.5,661.8,315.6z M817.3,341.8c-26.5,0-48,21.6-48,48
	c0,26.5,21.5,48.1,48,48.1s48-21.6,48-48.1C865.3,363.3,843.9,341.8,817.3,341.8z"/>
</svg>
